<svg xmlns="http://www.w3.org/2000/svg" fill="#2e4da2" data-name="Layer 3" viewBox="0 0 64 80" x="0px" y="0px">
    <title>university</title>
    <path d="M44,2H12a2,2,0,0,0-2,2V52a2,2,0,0,0,2,2h6v6a2,2,0,0,0,2,2H52a2,2,0,0,0,2-2V12a2,2,0,0,0-2-2H46V4A2,2,0,0,0,44,2ZM14,50V6H42v4H20a2,2,0,0,0-2,2V50Zm36,8H22V14H50Z" />
    <path d="M26,32a2,2,0,0,0,2-2V28h4v2a2,2,0,0,0,4,0V22a6,6,0,0,0-12,0v8A2,2,0,0,0,26,32Zm4-12a2,2,0,0,1,2,2v2H28V22A2,2,0,0,1,30,20Z" />
    <path d="M41,21v2H39a2,2,0,0,0,0,4h2v2a2,2,0,0,0,4,0V27h2a2,2,0,0,0,0-4H45V21a2,2,0,0,0-4,0Z" />
    <path d="M47,35H26a2,2,0,0,0,0,4H47a2,2,0,0,0,0-4Z" />
    <path d="M47,41H26a2,2,0,0,0,0,4H47a2,2,0,0,0,0-4Z" />
    <path d="M43,47H26a2,2,0,0,0,0,4H43a2,2,0,0,0,0-4Z" />
</svg>